HIERARCHY
ROOT Hips
{
	OFFSET -14.64140 90.27770 -84.91600
	CHANNELS 6 Xposition Yposition Zposition Zrotation Xrotation Yrotation
	JOINT Spine
	{
		OFFSET 0.00000 13.20850 -1.60436
		CHANNELS 3 Zrotation Xrotation Yrotation
		JOINT Spine1
		{
			OFFSET 0.00000 8.61716 0.00000
			CHANNELS 3 Zrotation Xrotation Yrotation
			JOINT Spine2
			{
				OFFSET 0.00000 8.61717 0.00000
				CHANNELS 3 Zrotation Xrotation Yrotation
				JOINT Spine3
				{
					OFFSET 0.00000 8.61717 0.00000
					CHANNELS 3 Zrotation Xrotation Yrotation
					JOINT Neck
					{
						OFFSET 0.00000 11.07920 1.10792
						CHANNELS 3 Zrotation Xrotation Yrotation
						JOINT Neck1
						{
							OFFSET 0.00000 7.08032 0.00000
							CHANNELS 3 Zrotation Xrotation Yrotation
							JOINT Head
							{
								OFFSET 0.00000 7.08031 0.00000
								CHANNELS 3 Zrotation Xrotation Yrotation
								End site
								{
									OFFSET 0.00000 0.00000 0.00000
								}
							}
						}
					}
					JOINT RightShoulder
					{
						OFFSET -0.01000 7.91373 5.19711
						CHANNELS 3 Zrotation Xrotation Yrotation
						JOINT RightArm
						{
							OFFSET -18.41580 0.00000 0.00000
							CHANNELS 3 Zrotation Xrotation Yrotation
							JOINT RightForeArm
							{
								OFFSET -29.11090 0.00000 0.00000
								CHANNELS 3 Zrotation Xrotation Yrotation
								JOINT RightHand
								{
									OFFSET -24.65040 0.00000 0.00000
									CHANNELS 3 Zrotation Xrotation Yrotation
									JOINT RightHandThumb1
									{
										OFFSET -5.35114 -0.85590 3.97906
										CHANNELS 3 Zrotation Xrotation Yrotation
										JOINT RightHandThumb2
										{
											OFFSET -4.52789 0.00000 0.00000
											CHANNELS 3 Zrotation Xrotation Yrotation
											JOINT RightHandThumb3
											{
												OFFSET -2.46976 0.00000 0.00000
												CHANNELS 3 Zrotation Xrotation Yrotation
												End site
												{
													OFFSET 0.00000 0.00000 0.00000
												}
											}
										}
									}
									JOINT RightHandIndex1
									{
										OFFSET -14.26970 0.00000 2.88139
										CHANNELS 3 Zrotation Xrotation Yrotation
										JOINT RightHandIndex2
										{
											OFFSET -5.48836 0.00000 0.00000
											CHANNELS 3 Zrotation Xrotation Yrotation
											JOINT RightHandIndex3
											{
												OFFSET -3.01859 0.00000 0.00000
												CHANNELS 3 Zrotation Xrotation Yrotation
												End site
												{
													OFFSET 0.00000 0.00000 0.00000
												}
											}
										}
									}
									JOINT RightHandMiddle1
									{
										OFFSET -14.26970 0.00000 -0.09147
										CHANNELS 3 Zrotation Xrotation Yrotation
										JOINT RightHandMiddle2
										{
											OFFSET -6.17441 0.00000 0.00000
											CHANNELS 3 Zrotation Xrotation Yrotation
											JOINT RightHandMiddle3
											{
												OFFSET -3.56743 0.00000 0.00000
												CHANNELS 3 Zrotation Xrotation Yrotation
												End site
												{
													OFFSET 0.00000 0.00000 0.00000
												}
											}
										}
									}
									JOINT RightHandRing1
									{
										OFFSET -12.69180 0.00000 -3.06433
										CHANNELS 3 Zrotation Xrotation Yrotation
										JOINT RightHandRing2
										{
											OFFSET -5.62556 0.00000 0.00000
											CHANNELS 3 Zrotation Xrotation Yrotation
											JOINT RightHandRing3
											{
												OFFSET -3.56744 0.00000 0.00000
												CHANNELS 3 Zrotation Xrotation Yrotation
												End site
												{
													OFFSET 0.00000 0.00000 0.00000
												}
											}
										}
									}
									JOINT RightHandPinky1
									{
										OFFSET -11.11390 0.00000 -6.03719
										CHANNELS 3 Zrotation Xrotation Yrotation
										JOINT RightHandPinky2
										{
											OFFSET -4.52789 0.00000 0.00000
											CHANNELS 3 Zrotation Xrotation Yrotation
											JOINT RightHandPinky3
											{
												OFFSET -2.46976 0.00000 0.00000
												CHANNELS 3 Zrotation Xrotation Yrotation
												End site
												{
													OFFSET 0.00000 0.00000 0.00000
												}
											}
										}
									}
								}
							}
						}
					}
					JOINT LeftShoulder
					{
						OFFSET 0.01000 7.91373 5.19711
						CHANNELS 3 Zrotation Xrotation Yrotation
						JOINT LeftArm
						{
							OFFSET 18.41580 0.00000 0.00000
							CHANNELS 3 Zrotation Xrotation Yrotation
							JOINT LeftForeArm
							{
								OFFSET 29.11090 0.00000 0.00000
								CHANNELS 3 Zrotation Xrotation Yrotation
								JOINT LeftHand
								{
									OFFSET 24.65040 0.00000 0.00000
									CHANNELS 3 Zrotation Xrotation Yrotation
									JOINT LeftHandThumb1
									{
										OFFSET 5.35114 -0.85590 3.97906
										CHANNELS 3 Zrotation Xrotation Yrotation
										JOINT LeftHandThumb2
										{
											OFFSET 4.52789 0.00000 0.00000
											CHANNELS 3 Zrotation Xrotation Yrotation
											JOINT LeftHandThumb3
											{
												OFFSET 2.46977 0.00000 0.00000
												CHANNELS 3 Zrotation Xrotation Yrotation
												End site
												{
													OFFSET 0.00000 0.00000 0.00000
												}
											}
										}
									}
									JOINT LeftHandIndex1
									{
										OFFSET 14.26970 0.00000 2.88139
										CHANNELS 3 Zrotation Xrotation Yrotation
										JOINT LeftHandIndex2
										{
											OFFSET 5.48836 0.00000 0.00000
											CHANNELS 3 Zrotation Xrotation Yrotation
											JOINT LeftHandIndex3
											{
												OFFSET 3.01859 0.00000 0.00000
												CHANNELS 3 Zrotation Xrotation Yrotation
												End site
												{
													OFFSET 0.00000 0.00000 0.00000
												}
											}
										}
									}
									JOINT LeftHandMiddle1
									{
										OFFSET 14.26970 0.00000 -0.09147
										CHANNELS 3 Zrotation Xrotation Yrotation
										JOINT LeftHandMiddle2
										{
											OFFSET 6.17440 0.00000 0.00000
											CHANNELS 3 Zrotation Xrotation Yrotation
											JOINT LeftHandMiddle3
											{
												OFFSET 3.56744 0.00000 0.00000
												CHANNELS 3 Zrotation Xrotation Yrotation
												End site
												{
													OFFSET 0.00000 0.00000 0.00000
												}
											}
										}
									}
									JOINT LeftHandRing1
									{
										OFFSET 12.69180 0.00000 -3.06433
										CHANNELS 3 Zrotation Xrotation Yrotation
										JOINT LeftHandRing2
										{
											OFFSET 5.62556 0.00000 0.00000
											CHANNELS 3 Zrotation Xrotation Yrotation
											JOINT LeftHandRing3
											{
												OFFSET 3.56744 0.00000 0.00000
												CHANNELS 3 Zrotation Xrotation Yrotation
												End site
												{
													OFFSET 0.00000 0.00000 0.00000
												}
											}
										}
									}
									JOINT LeftHandPinky1
									{
										OFFSET 11.11390 0.00000 -6.03719
										CHANNELS 3 Zrotation Xrotation Yrotation
										JOINT LeftHandPinky2
										{
											OFFSET 4.52789 0.00000 0.00000
											CHANNELS 3 Zrotation Xrotation Yrotation
											JOINT LeftHandPinky3
											{
												OFFSET 2.46976 0.00000 0.00000
												CHANNELS 3 Zrotation Xrotation Yrotation
												End site
												{
													OFFSET 0.00000 0.00000 0.00000
												}
											}
										}
									}
								}
							}
						}
					}
					JOINT pCube4
					{
						OFFSET 0.00000 10.91090 1.10792
						CHANNELS 3 Zrotation Xrotation Yrotation
						End site
						{
							OFFSET 0.00000 0.00000 0.00000
						}
					}
				}
			}
		}
	}
	JOINT RightUpLeg
	{
		OFFSET -9.98441 0.00000 0.00000
		CHANNELS 3 Zrotation Xrotation Yrotation
		JOINT RightLeg
		{
			OFFSET 0.00000 -42.11790 0.00000
			CHANNELS 3 Zrotation Xrotation Yrotation
			JOINT RightFoot
			{
				OFFSET 0.00000 -45.00020 -0.00001
				CHANNELS 3 Zrotation Xrotation Yrotation
				JOINT RightForeFoot
				{
					OFFSET 0.00000 -3.74820 0.00000
					CHANNELS 3 Zrotation Xrotation Yrotation
					JOINT RightToeBase
					{
						OFFSET 0.00000 0.06325 14.43120
						CHANNELS 3 Zrotation Xrotation Yrotation
						End site
						{
							OFFSET 0.00000 0.00000 0.00000
						}
					}
				}
			}
		}
	}
	JOINT LeftUpLeg
	{
		OFFSET 9.98441 0.00000 0.00000
		CHANNELS 3 Zrotation Xrotation Yrotation
		JOINT LeftLeg
		{
			OFFSET 0.00000 -42.11800 0.00000
			CHANNELS 3 Zrotation Xrotation Yrotation
			JOINT LeftFoot
			{
				OFFSET 0.00000 -45.00070 0.00000
				CHANNELS 3 Zrotation Xrotation Yrotation
				JOINT LeftForeFoot
				{
					OFFSET 0.00000 -3.74824 0.00000
					CHANNELS 3 Zrotation Xrotation Yrotation
					JOINT LeftToeBase
					{
						OFFSET 0.00000 0.06325 14.43110
						CHANNELS 3 Zrotation Xrotation Yrotation
						End site
						{
							OFFSET 0.00000 0.00000 0.00000
						}
					}
				}
			}
		}
	}
}
MOTION
Frames: 4
Frame Time: 0.050000
0.028651892920579427 -0.0010182803946905503 -0.020265496631694982 -0.030672770758511242 -0.03082969506914204 -0.005578748106441761 -4.732339877141056 7.375927290687081 -0.517525435596825 -0.6711380914599324 2.937008047347106 0.38714552244685985 -0.8948572741044988 -0.003326528289448044 -1.2441663762968334 -1.2580733397252464 0.28640025651637846 -0.9593414731950417 -1.0529149294175226 8.720772546296791 2.425964406970572 -0.17680061228415783 -0.8355164748098722 2.3230883033562044 -0.7311894833306525 -14.818218753364713 0.2815389225093211 2.9339740957514873 0.13058426259788541 -8.206249460102896 68.61678455426876 4.206936054624303 42.09168357929363 45.689116002775876 13.574589997585784 101.79022581732644 29.001963238644038 0.5000168506617253 -15.219483543411888 4.517612925818339 -0.08361966900692791 -1.6188675794651712 0.005518561875623991 -0.03401569386583502 -56.28040862029268 -0.03715079416157428 -0.006998080043417066 -56.23785946925007 -38.7549997523955 0.04567281296294924 0.01727728441802912 -0.03561637472257615 -0.04998574049854899 -0.017455496145154698 -0.039677085597316135 -0.0374019699177532 0.02857794406497422 -36.703023156396526 -0.026919974385910147 0.03637401224182816 -0.03790368027022875 -0.021608454579091788 -0.010894944630472646 0.008195322938683487 -0.006860381982578937 0.03862665072801408 -19.76651196373919 0.008340126613560652 -0.047615818295732006 -0.01726178774867278 -0.03672403120596003 -0.03722241948941163 0.038396578211899714 -0.019395234362685938 -0.034272295511074524 24.07008872842374 0.04409297067088118 -0.008889422793822556 28.872986226349443 0.018860479362071275 -0.02545313390491726 28.81665022302819 -0.020048550287162435 -0.0349763077138 0.2687505395356731 0.5186107438282773 7.629649620893547 -62.95521577825625 18.871301281820575 -39.63514590718028 -57.63184755640445 16.03343337577335 -109.94018895488595 -25.77544248317488 -7.4457273306896505 5.307833985732965 -0.505072730496823 0.03682746382000736 -8.127594349752963 0.003853208891716424 -0.022816141068960363 44.57787708235427 0.0006548871539775001 0.048100894557020955 44.5214110141112 12.44306473568148 0.04150814159965731 0.02997656790012158 0.012140979483077177 0.010744770460785836 0.04340047978477017 -0.03478543214758829 0.0240573810979677 0.04549812210426494 11.093769050319136 0.00465258224644635 0.040813356163084846 -0.040087557203494585 0.04792196775208206 -0.03946813018458501 0.013749141034332472 0.007742344473579514 0.010228362213959374 4.767743048229433 -0.012990791498807249 -0.0013618003475139638 -0.0447550643508342 0.011592692991203461 0.02929263459960304 -0.003077945783361832 0.014279058477677152 -0.017088726929154197 -5.5831944256296575 0.023719049267297083 0.036766762488834814 -6.7517805605109675 -0.0015633710570923998 0.033733000615275455 -6.750003305756676 -0.022428894307403375 0.03532463009063014 -0.006010453865236022 -0.025740362199266953 0.03865156486845449 8.046559653702051 3.52220242610419 -19.202337864250605 -0.013609589676966441 10.349913526904343 0.060052307685892745 -5.661515696012914 -15.683267244800527 3.205359281063269 -0.04593830809966812 0.030905532272978316 -0.014388648429128134 0.03499866952555083 4.656328798781434 -0.04044940824840349 12.463996751918765 -8.21195863196669 6.862387868026928 -0.0076109736169379045 46.42492203025514 -0.021973230502521042 -4.286740370694727 -14.73319527092733 -3.82149676296855 0.008989701612269186 -0.024789586581699986 -0.021965574178042648 0.010453837691694107 -10.732769981498597 0.04659965940121274 
-0.03200868732602433 0.01473793572339357 0.03960173655099214 -0.021903839826713137 -0.026108427360036615 0.009226329324390912 -4.816348530688843 7.409938739838744 -0.4814457325495195 -0.7408380729248925 2.8266394813560893 0.4282855545326842 -0.940359272795841 -0.08256642881555297 -1.3069551798504428 -1.3902226982995425 0.31126618007456647 -0.9581719768158445 -0.9938517227277558 8.851144752749054 2.4109316314377494 -0.16017931520976605 -0.8048484728343253 2.376092093381513 -0.7232529842939045 -14.674530093225716 0.29163861173394584 2.4289477952269123 0.27305487775797993 -8.14901874124575 67.81355076546691 0.8116975364574673 44.91563475086732 43.5610891347491 12.849943192460218 102.09661008821811 29.421823817431218 0.4609332983597669 -15.054014532278664 4.561285513609431 -0.17592162872438508 -1.5684603904637713 0.01915768536858798 0.007183615579123626 -56.268366024415336 0.022866373860487933 0.04346784681162491 -56.26981973944776 -38.79074724127026 -0.014913079995837866 0.02062322019209157 -0.010644511592916524 0.010406129284300028 0.04277567214097148 -0.02432761474347899 0.0407864477911935 0.023691122486940643 -36.74053003065927 0.017025854323838484 -0.028715144725265884 0.002773341839954681 -0.04805006658899478 -0.013747729505346385 0.033262261435882186 -0.04030531771467834 -0.03749151219965334 -19.76557349551755 -0.01090233582465347 0.007529856328140803 0.01679966675702758 -0.006708014880744631 -0.007788341386896951 0.02193202827647879 0.00376344903105223 0.047285217429820545 24.074018248208006 0.035320696026727764 0.028392696519783493 28.857639170863834 0.011338136583282355 0.024194919039384873 28.881629373272403 0.026793892758589444 -0.03949939120775774 0.5136189803860369 0.59619851779342 7.548039106878252 -62.16207047644095 18.42500032208139 -41.319008696233496 -51.52009232350056 14.892086314617844 -108.17576994910915 -24.778190935772372 -6.683944328899359 4.616487817603337 -0.44455936207037144 0.117521952314149 -8.102398700442638 -0.046243101858673856 0.01102070153381193 44.527682656657525 -0.009887302205614257 -0.017982867190438304 44.564900497756334 12.420456926740068 -0.04774955818924371 0.012070241346127436 0.044404267449267294 -0.006120507001787745 -0.04022798264749465 -0.007829834571828509 -0.03920819825365602 -0.028162316816760836 11.06316322080424 0.013524809481288173 0.04739045938605027 -0.03048829781144884 0.03550437308740289 -0.04995972096087952 0.0327200052115218 -0.03885084481034407 0.04625262835451198 4.764441961440005 0.04559824956253091 -0.016164401547532074 -0.0031628228612582392 0.045789149329695286 0.016034183715444784 0.019410314990051355 0.0073966766918542514 0.02069603298554625 -5.618681552499321 0.013612697442628913 -0.007704176871349433 -6.729572895549856 -0.0046798050529842546 -0.004107764552241526 -6.717985960491767 -0.00380733128917434 -0.04889669071481983 0.03586504846421674 -0.00958281798676958 -0.0015628794108476021 8.085773274728547 3.5010126089083835 -19.251815385454297 -0.013071661708324092 10.379447757615896 -0.026311092899904732 -5.667106791204873 -15.656650106522623 3.2042243138304882 -0.012566563442331929 -0.02628829298604037 0.03203101239399127 0.012694532631535846 4.656302477637928 -0.024618394394942112 12.476646859182145 -8.205598370907401 6.838136282318609 0.0034084164564196764 46.40436917895891 -0.04022506538297872 -4.312452989658652 -14.792974152964328 -3.7940312547407733 -0.025520473417405053 -0.036616675529164984 0.0021075282839343383 0.0293472832436255 -10.75776420741939 -0.01505721880038604 
-0.004026639298142546 0.019166999723143188 -0.024456369845617373 -0.029721829447902654 -0.03467382903544498 -0.03328572981946555 -4.960050101306097 7.5666500842740625 -0.49958404096325393 -0.752055698251034 2.8373401762462382 0.4032902679192631 -0.9785671325722645 -0.12446957318835586 -1.3553839678704107 -1.3819234329931611 0.2831497137185627 -1.012079084049334 -0.841856057273563 8.898534782106026 2.2496159009969547 -0.08067660642839701 -0.732952089384189 1.9493040636711985 -0.6022712330006716 -14.576431352277035 0.21554395926130976 2.3235425289338503 0.3028976961477385 -8.210719647930361 66.5945074154294 -1.8953111075726334 46.04466821964185 41.352233759874935 12.46191785964265 102.84554664696415 29.94454840604207 0.5494699967896173 -14.986784694648948 4.571985166073621 -0.08314876690551848 -1.627151260132753 0.025450989653434297 0.0199369382547552 -56.19469250533933 0.025486448876587672 -0.008118400321453938 -56.222220771109754 -38.72840420377435 0.019346972403148074 -0.008378402994514013 -0.030706386533459737 0.03925000209904269 0.03567598607519769 -0.01964089597077365 -0.02297896128977495 0.004128973888613464 -36.683121510202675 0.034794599024725106 -0.002213981484152274 -0.020709967097079694 0.01138632295755767 0.007133118381099888 -0.011545573446587897 -0.03040609356341793 0.01035245986745712 -19.73696652320604 0.016141570939904145 0.04574983598531718 0.015758766315082207 0.023204971746828982 0.016669007689327144 0.011219324765171597 -0.007731630615838466 0.012498176478743383 24.071113327868854 0.04163950915093895 0.025270828458811657 28.86108863444773 0.04080906311637867 -0.0013916760606580182 28.823371261170806 -0.0318278342130348 0.011989688640771 0.23033501543963109 0.5569061910493739 7.567770217557795 -61.08632445559861 18.97663307653071 -41.26313942909555 -43.92811034691609 13.730172413660387 -106.50164963127062 -24.060931095710803 -6.318047802103367 4.184760608814815 -0.44600987082046506 0.06125543136673284 -8.113551846657831 -0.003756924102533662 0.007835566336699564 44.548855451296575 0.011540966819688093 -0.03543850034704346 44.520305199046454 12.486133225725242 0.014376634655960684 0.020153641740505056 -0.01913417932404094 0.043910940798304925 -0.013843253884794758 0.049004632983796155 0.004042874242305042 0.04546247196386904 11.058733592940435 -0.024384641534113734 0.012319320094614521 0.01924094237442592 0.023194371259395965 -0.03270153175038454 0.03484986260415387 -0.048760428479224856 -0.019651876224191303 4.7432461777162676 0.017016624951021336 0.020786560934282838 0.03954557597028174 -0.030660246619086652 -0.007214304252412974 -0.04266103014758888 0.02166934285975734 -0.009412349298140442 -5.606364316958918 -0.0015194148418604535 0.03611322087500465 -6.769568885944496 0.017356861060341396 0.03434099723555344 -6.7239080539930205 -0.0499806714794311 0.0150841665482206 0.017248244294243 0.0011273760074166578 0.01910704443013755 8.087974981115627 3.485800033201228 -19.235052428308403 0.04568064423832635 10.43071271788393 0.028211782959686474 -5.659299525840181 -15.642341234797394 3.190174347811231 -0.04625892345157386 0.03923219804673312 0.029791540834885506 -0.03638366977251938 4.65804170574263 -0.044103207506515654 12.483697653741938 -8.241200993081364 6.905367508777011 -0.04205804124910815 46.38097717321771 -0.002105820287312446 -4.352266541793214 -14.737832968253413 -3.873955976895986 0.027811355040928645 -0.018806096832309042 -0.003344545402609244 -0.015667901401645572 -10.768924486814036 -0.009168396929036544 
-0.006729194138114097 -0.04156389654516622 -0.04565889690868721 0.0266473909977529 -0.03279946997997466 0.02178641179191987 -5.003446058670848 7.557684975993316 -0.4241184879115994 -0.6793001899837989 2.8355426922405016 0.36848597187182347 -0.9957001615989879 -0.05134620774413456 -1.3710604643735544 -1.3077742970535506 0.33667991863541413 -0.9941737681016254 -0.7067081136869752 8.93209989677857 1.906442504799184 -0.09185052762617031 -0.5978777156844337 1.193888474383341 -0.511634762340401 -14.39258430249428 0.18257822112772326 2.20796169656761 0.41389049881777945 -8.3734269765523 65.57346611871102 -4.021057485378926 46.325377471513846 37.491465534759364 11.370233290637788 103.62005760497577 29.79720205711595 0.4840287289498883 -14.57580060750108 4.488881581347664 -0.12974550568338825 -1.6038679718510982 -0.0323202416899994 0.047616642779183316 -56.23613206781037 0.039998738936069186 0.036639791838742775 -56.223097850973936 -38.78288278636685 0.03707735915371869 0.0387095138592717 0.031079412705525306 0.01778913079659187 -0.02999121561286821 0.023889329846230975 0.0031274767493847796 -0.049385035846519626 -36.72368229537708 0.02959512605247753 0.012131853920981237 -0.006790097624540408 0.041873394802694405 -0.009676418422263196 0.001487322642304401 -0.03984605722459484 -0.005349625644536934 -19.714612821715754 -0.03994650795822674 0.04470980943976823 0.020585660930271442 0.045983098299347665 -0.009046375537468638 -0.0058183937204098314 -0.042270004020889596 -0.006953110013339993 24.050873391123275 -0.010581566842442578 -0.04507421093487063 28.824347461007353 -0.035900755480358 -0.029008969863295448 28.877557990761918 0.04286040132320683 -0.004992649779323639 -0.07005407986182868 0.5089217519448649 7.601226769820834 -59.867869366272494 20.28226178509659 -40.99597381748449 -32.93111849536285 10.70562805809055 -104.61257242915788 -22.2898464556536 -5.74478513793821 3.6261246499481743 -0.48333879104817384 0.06163447405296071 -8.11582240282059 -0.035848650762797765 0.01588546407369599 44.56240257034874 0.005276661847172516 -1.422281331758539e-05 44.60880283918563 12.439170347047327 0.04827334435843466 0.02145435987106006 0.045371844607229386 -0.018930977445068362 -0.0005108560621358121 0.03896395113110583 0.028976897386378406 0.03425596058548923 11.119650409914646 0.006469556817578142 0.039786806396849325 0.02917513413912477 -0.046034996690078864 -0.002672657520411282 0.014592233077049571 -0.023219750722906416 -0.025136294522656623 4.810739003199022 0.022333230553837357 -0.026197738795859345 -0.042061636400371374 0.01467723628699173 0.0005533543341564782 -0.049021239748032845 0.004735277829810214 0.02758577559713024 -5.593387654887605 -0.03472939010559794 -0.03984827330146623 -6.724990072561356 -0.016480005510366012 0.013454811453461678 -6.741764388683014 0.04534896443327241 -0.024587144580296604 -0.03813599885318344 -0.005510815761432288 -0.008333243518736539 8.040045618857985 3.4952293154689893 -19.20908117661404 0.010365105872600958 10.4213482429188 0.01514356044837932 -5.662722960783499 -15.655954657964497 3.221700217493373 0.03317457574222843 -0.003592470831965559 -0.03931741561193216 0.006680903739855702 4.682493656313391 -0.03318295820363833 12.459400627872242 -8.244766411429195 6.930579371728082 -0.03038145626998037 46.40967657752253 0.013142020201063151 -4.363904399006085 -14.712271492051219 -3.855258841320162 -0.029698487901179193 -0.021910772782359367 0.014196020304573112 0.030429652186633658 -10.743203294413721 -0.04506223300164486 
